<?xml version="1.0" encoding="utf-8"?>
<!-- Generator: Adobe Illustrator 22.0.1, SVG Export Plug-In . SVG Version: 6.00 Build 0)  -->
<svg version="1.1" id="Layer_1" xmlns="http://www.w3.org/2000/svg" xmlns:xlink="http://www.w3.org/1999/xlink" x="0px" y="0px"
	 viewBox="0 0 306 144" style="enable-background:new 0 0 306 144;" xml:space="preserve">
<style type="text/css">
	.st0{fill:#C82127;}
	.st1{fill:#EF8623;}
</style>
<g>
	<path class="st0" d="M203.7,80.1c3.2-4.4,2.1-12.4-1.5-14.5c-6.3-3.5-19.8,8.7-20.4,7.8c-0.6-0.8,12.4-9.3,20.8-24.6
		c5.6-10.3,4.2-14.5,3.1-16.3c-0.2-0.4-1.8-2.8-4.4-3.4c-8.4-1.6-15.8,18.9-22.2,17.6c-6.2-1.3-5.4-22.1-9.9-22.5
		c-4.7-0.4-8.9,18.5-14.1,17.9c-2-0.2-2.6-3.3-5.7-11c-8.1-20.3-13.1-23.1-15-24c-0.9-0.4-5.4-2.5-9.9-0.7c-2.9,1.2-5.9,3.9-6.6,7.3
		c-1.4,6.8,7.8,10.2,14.4,22.5c5.6,10.4,6.6,22.3,3.8,23.8c-3,1.5-8.1-8.9-18.5-9.1c-1,0-6.6-0.2-9.9,3.6c-4,4.6-2,11.9-1.6,13.7
		c4.7,17.6,46.8,21.7,49.6,21.5c1.7-0.1,4.8-0.7,6.4-1.1c3.5-0.9,7.4-3.2,14.6-4.1C192.7,82.2,200.2,84.9,203.7,80.1z"/>
	<path class="st0" d="M131.8,52.3c-1.6-1.9-4-4.3-7.5-6.3c-5.4-3-9.4-2.5-11-5.7c-1-2-0.8-4.7,0.6-6.4c1.6-1.8,4.2-1.8,4.6-1.8
		c1,0,1.9,0.4,2.8,0.9c4.5,2.9,8,11.8,9.6,16.5C131.4,50.9,131.7,52,131.8,52.3z M158.9,23L158.9,23c-0.4,6.3-3.2,13.9-3.9,15.9
		c-0.1-1.6-0.4-3.7-1.1-5.8v0c-0.3-1.1-0.7-2.2-1.2-3.4c-1.6-3.6-3.5-5.7-4.5-7.7c-0.6-1.2-0.9-2.3-0.6-3.6c0.4-2.1,2.2-4.2,4.4-4.7
		c2.4-0.5,4.4,1.2,4.7,1.4C158.6,16.7,159.1,19.7,158.9,23z M210.7,55.9c-1.4,2.2-4.2,1.5-8.3,3.1c-2.7,1.1-4.7,2.6-5.9,3.8
		c0.1-0.3,0.8-1.8,1.8-3.7c1.9-3.5,4.9-8.2,7.9-9.2c0.5-0.2,1.1-0.3,1.6-0.2c0.3,0,2.2,0.3,3.1,1.7
		C211.8,52.6,211.6,54.6,210.7,55.9L210.7,55.9z M173.8,17.7c-0.2,0.5-0.4,0.9-0.7,1.2c-1.3,1.3-3.7,1.7-6.7,3.7
		c-2.3,1.6-3.9,3.5-4.9,4.9c0,0-0.1,0.1-0.1,0.1c0.2-1.1,2.8-14.8,8-15.4c0.3,0,2.2-0.3,3.4,0.9C174,14.3,174.4,16.2,173.8,17.7z
		 M198.3,21.4c-1.1,4.4-5.9,4.8-11.6,9.9c-2.3,2.1-4.3,4.5-6,7.1c0,0,0,0,0,0c-0.6,0.9-1,1.7-1.4,2.5v0c0.4-4.7,2-17.8,5.8-23.9
		c0.1-0.2,0.3-0.4,0.4-0.6c1.2-1.7,2.6-2.9,4.3-3.4c0.5-0.1,3.6-0.9,6,0.9C198,15.5,199,18.8,198.3,21.4z"/>
	<path class="st1" d="M201.1,78.3c3-4.1,2-11.7-1.5-13.6c-5.9-3.3-18.7,8.2-19.3,7.4c-0.5-0.7,11.7-8.8,19.6-23.2
		c5.3-9.7,3.9-13.7,2.9-15.4c-0.2-0.3-1.6-2.7-4.1-3.1c-7.9-1.6-14.9,17.9-20.9,16.6c-5.9-1.3-5.1-20.8-9.4-21.3
		c-4.4-0.4-8.4,17.4-13.3,16.8c-1.9-0.2-2.5-3.1-5.4-10.4c-7.6-19.1-12.3-21.8-14.1-22.6c-0.8-0.4-5.1-2.4-9.4-0.6
		c-2.7,1.1-5.6,3.7-6.2,6.9c-1.3,6.4,7.3,9.6,13.6,21.2c5.3,9.8,6.3,21,3.6,22.4c-2.8,1.5-7.6-8.4-17.4-8.6c-0.9,0-6.2-0.2-9.3,3.4
		c-3.8,4.3-1.9,11.2-1.5,12.9c4.4,16.6,44.1,20.5,46.7,20.3c1.6-0.1,4.5-0.7,6.1-1c3.3-0.8,7-3,13.8-3.9
		C190.8,80.2,197.8,82.7,201.1,78.3z"/>
	<path class="st1" d="M130.9,49.5c-1.4-1.3-3-2.4-4.7-3.4c-5.1-2.8-8.8-2.3-10.3-5.4c-0.9-1.8-0.8-4.5,0.6-6c1.5-1.7,4-1.7,4.3-1.7
		c0.2,0,0.3,0,0.5,0C125.8,35.9,129.3,44.8,130.9,49.5z M158.9,23L158.9,23c-0.4,6.3-3.2,13.9-3.9,15.9c-0.1-1.6-0.4-3.7-1.1-5.8v0
		c-0.3-1.1-0.7-2.2-1.2-3.4c-1.6-3.6-3.5-5.7-4.5-7.7c-0.1-0.6-0.2-1.2,0-1.9c0.4-2,2.1-4,4.1-4.4c2.2-0.5,4.2,1.1,4.5,1.3
		C158.3,18.2,158.9,20.4,158.9,23z M207.7,55.5c-1.4,2-3.9,1.4-7.9,2.9c-0.6,0.2-1.1,0.5-1.6,0.7c1.9-3.5,4.9-8.2,7.9-9.2
		c0.6,0.2,1.2,0.6,1.7,1.3C208.7,52.4,208.6,54.2,207.7,55.5z"/>
	<path class="st0" d="M223.5,102.8c-2.5,0.7-4.1-1.7-8.3-3.2c-2.7-1-5.2-1.2-6.9-1.1c0.3-0.1,1.8-0.8,3.8-1.6
		c3.7-1.3,9.1-2.9,12.1-1.7c0.5,0.2,1,0.5,1.3,0.9c0.2,0.2,1.5,1.6,1.2,3.3C226.4,101,225,102.4,223.5,102.8z"/>
	<path class="st1" d="M221.6,100.4c-2.4,0.6-3.9-1.6-7.8-3c-0.6-0.2-1.1-0.4-1.7-0.5c3.7-1.3,9.1-2.9,12.1-1.7
		c0.3,0.6,0.5,1.3,0.4,2.1C224.3,98.7,223,100,221.6,100.4z"/>
	<path class="st0" d="M243.4,138.1c-1.8,0.2-2.7-1.6-5.4-3.1c-1.8-1-3.5-1.4-4.7-1.5c0.2-0.1,1.3-0.4,2.8-0.7c2.7-0.5,6.6-1,8.5,0.1
		c0.3,0.2,0.6,0.4,0.8,0.8c0.1,0.2,0.8,1.3,0.5,2.4C245.6,137.2,244.5,138,243.4,138.1z"/>
	<path class="st1" d="M242.3,136.2c-1.7,0.2-2.5-1.5-5.1-2.9c-0.4-0.2-0.7-0.4-1.1-0.5c2.7-0.5,6.6-1,8.5,0.1
		c0.1,0.4,0.2,0.9,0.1,1.5C244.4,135.4,243.3,136.1,242.3,136.2L242.3,136.2z"/>
	<path class="st0" d="M90.3,104.1c2.2,0.2,3.2-2,6.5-3.8c2.2-1.2,4.2-1.7,5.7-1.8c-0.3-0.1-1.6-0.5-3.4-0.8c-3.3-0.7-8-1.3-10.4,0.2
		c-0.4,0.3-0.7,0.6-1,0.9c-0.1,0.2-1,1.6-0.6,3C87.6,103,89,103.9,90.3,104.1z"/>
	<path class="st1" d="M91.6,101.9c2.1,0.2,3.1-1.8,6.2-3.6c0.5-0.3,0.9-0.5,1.3-0.7c-3.3-0.7-8-1.3-10.4,0.2
		c-0.2,0.5-0.3,1.2-0.1,1.8C89.1,100.8,90.4,101.7,91.6,101.9z"/>
	<path class="st0" d="M65.1,140.6c2.6-0.6,3-3.5,6.1-6.8c2.1-2.2,4.3-3.5,5.9-4.3c-0.4,0-2.1,0.1-4.3,0.3c-4,0.5-9.7,1.6-11.9,4.1
		c-0.4,0.4-0.7,0.9-0.8,1.4c-0.1,0.3-0.6,2.2,0.4,3.6C61.5,140.4,63.5,141,65.1,140.6z"/>
	<path class="st1" d="M65.8,137.6c2.5-0.5,2.8-3.3,5.8-6.4c0.4-0.5,0.9-0.9,1.3-1.3c-4,0.5-9.7,1.6-11.9,4.1c0,0.6,0.1,1.4,0.6,2.1
		C62.4,137.3,64.3,137.9,65.8,137.6L65.8,137.6z M173.1,18.9c-1.3,1.3-3.7,1.7-6.7,3.7c-2.3,1.6-3.9,3.5-4.9,4.9
		c0.8-3.5,3.2-12.8,7.3-13.2c0.3,0,2-0.2,3.2,0.9C173,16,173.3,17.6,173.1,18.9z M196,22.9c-1,4.1-5.6,4.5-11,9.3
		c-1.7,1.5-3.2,4.1-4.3,6.2c0,0,0,0,0,0c-0.5,1-1,1.8-1.4,2.5v0c0.4-4.7,2-17.8,5.8-23.9c0.1-0.2,0.3-0.4,0.4-0.6
		c0.8-0.7,1.6-1.2,2.5-1.4c0.4-0.1,3.4-0.8,5.7,0.9C195.8,17.4,196.6,20.4,196,22.9L196,22.9z"/>
</g>
</svg>
